# xmcd
# 
# Track frame offsets:
#     150
#     17770
#     41351
#     57121
#     73721
#     92124
#     107426
#     122513
#     144842
#     160745
#     175822
#     191878
#     211231
#     228089
#     243571
#     257815
#     273049
#     295445
# 
# Disc length: 4132
# 
# Revision: 1
# Processed by: cddbd v1.5.2PL0 Copyright (c) Steve Scherf et al.
# Submitted via: fre:ac v1.0.31
# 
DISCID=f5102212
DTITLE=Uwe Hübner präsentiert - Deutsche Schlager Charts Folge 3  CD1
DYEAR=0
DGENRE=Schlager
TTITLE0=Mary Roos - Medellin
TTITLE1=Leonard - Tanz nicht allein(lub-Power-Mix)
TTITLE2=Claudia Jung - Nur mit dir
TTITLE3=Michaela Merten - Liebe mich
TTITLE4=Dschingis Kahn - Moskau 99
TTITLE5=Anja Hoffmann - Wenn ein Mädchen liebt
TTITLE6=Die Puhdis - Wenn ein Mensch lebt
TTITLE7=Corinna May - Wie ein Stern
TTITLE8=Nina Falk - Ich steh zu dir
TTITLE9=Jeannine - Samba de Luna
TTITLE10=Andreas L - Ultimate notte con te
TTITLE11=Petra Frey - Heiß und Kalt
TTITLE12=Matthias Rein - Lass uns Leben
TTITLE13=Michelle - Lenas Schatten
TTITLE14=Frank Galan - Vagabunden der Nacht
TTITLE15=Ingrid Peters - Mit viel Fantasie
TTITLE16=Münchner Freiheit - 2001
TTITLE17=Ute Freudenberg - Träum solange du lebst
EXTD=
EXTT0=
EXTT1=
EXTT2=
EXTT3=
EXTT4=
EXTT5=
EXTT6=
EXTT7=
EXTT8=
EXTT9=
EXTT10=
EXTT11=
EXTT12=
EXTT13=
EXTT14=
EXTT15=
EXTT16=
EXTT17=
PLAYORDER=
